<svg height="1000" viewBox="0 0 512 512" width="1000" xmlns="http://www.w3.org/2000/svg"><path d="m138.441406 503.617188h-130.957031v-388.734376c0-3.308593 2.679687-5.992187 5.992187-5.992187h124.964844zm0 0" fill="#00d3b4"/><path d="m504.515625 503.617188h-130.957031v-394.726563h124.964844c3.3125 0 5.992187 2.683594 5.992187 5.992187zm0 0" fill="#00d3b4"/><path d="m504.515625 503.617188h-16.710937v-394.726563h10.71875c3.3125 0 5.992187 2.683594 5.992187 5.992187zm0 0" fill="#00b7a0"/><path d="m121.730469 108.890625h16.710937v394.726563h-16.710937zm0 0" fill="#00b7a0"/><path d="m377.210938 45.761719h-242.21875c-2.757813 0-4.988282 2.234375-4.988282 4.988281v21.394531c0 2.753907 2.230469 4.988281 4.988282 4.988281h242.21875c2.753906 0 4.988281-2.234374 4.988281-4.988281v-21.394531c0-2.753906-2.234375-4.988281-4.988281-4.988281zm0 0" fill="#babac0"/><path d="m382.199219 50.75v21.398438c0 2.753906-2.234375 4.988281-4.988281 4.988281h-16.890626c2.761719 0 4.988282-2.234375 4.988282-4.988281v-21.398438c0-2.753906-2.226563-4.988281-4.988282-4.988281h16.890626c2.753906 0 4.988281 2.234375 4.988281 4.988281zm0 0" fill="#a1a1a7"/><path d="m138.441406 77.132812h235.320313v426.484376h-235.320313zm0 0" fill="#8bebdb"/><path d="m357.457031 77.132812h16.304688v426.484376h-16.304688zm0 0" fill="#5ee2c5"/><path d="m186.558594 353.09375h69.4375v150.523438h-69.4375zm0 0" fill="#c9f0ff"/><path d="m255.996094 353.09375h69.441406v150.523438h-69.441406zm0 0" fill="#c9f0ff"/><path d="m312.152344 353.09375h13.285156v150.523438h-13.285156zm0 0" fill="#9ae7fd"/><path d="m242.714844 353.09375h13.28125v150.523438h-13.28125zm0 0" fill="#9ae7fd"/><path d="m333.707031 352.648438h-155.417969c-2.324218 0-4.207031-1.882813-4.207031-4.207032v-19.5625c0-2.324218 1.882813-4.207031 4.207031-4.207031h155.417969c2.324219 0 4.207031 1.882813 4.207031 4.207031v19.5625c0 2.324219-1.882812 4.207032-4.207031 4.207032zm0 0" fill="#babac0"/><path d="m337.917969 328.878906v19.566406c0 2.320313-1.886719 4.207032-4.207031 4.207032h-17.136719c2.324219 0 4.207031-1.886719 4.207031-4.207032v-19.566406c0-2.324218-1.882812-4.207031-4.207031-4.207031h17.136719c2.320312 0 4.207031 1.882813 4.207031 4.207031zm0 0" fill="#a1a1a7"/><path d="m138.339844 108.890625v174.941406h78.21875v-174.941406zm0 0" fill="#c9f0ff"/><path d="m216.890625 108.890625v174.941406h78.21875v-174.941406zm0 0" fill="#c9f0ff"/><path d="m295.441406 108.890625v174.941406h78.21875v-174.941406zm0 0" fill="#c9f0ff"/><path d="m278.90625 108.890625v174.941406h16.203125v-174.941406zm0 0" fill="#9ae7fd"/><path d="m200.355469 108.890625v174.941406h16.203125v-174.941406zm0 0" fill="#9ae7fd"/><path d="m357.457031 108.890625v174.941406h16.203125v-174.941406zm0 0" fill="#9ae7fd"/><g fill="#c9f0ff"><path d="m455.054688 193.203125h-32.035157c-4.617187 0-8.359375-3.742187-8.359375-8.359375v-32.035156c0-4.617188 3.742188-8.359375 8.359375-8.359375h32.035157c4.617187 0 8.359374 3.742187 8.359374 8.359375v32.035156c0 4.617188-3.742187 8.359375-8.359374 8.359375zm0 0"/><path d="m455.054688 284.820312h-32.035157c-4.617187 0-8.359375-3.742187-8.359375-8.355468v-32.039063c0-4.617187 3.742188-8.359375 8.359375-8.359375h32.035157c4.617187 0 8.359374 3.742188 8.359374 8.359375v32.039063c0 4.613281-3.742187 8.355468-8.359374 8.355468zm0 0"/><path d="m455.054688 376.441406h-32.035157c-4.617187 0-8.359375-3.746094-8.359375-8.359375v-32.039062c0-4.617188 3.742188-8.359375 8.359375-8.359375h32.035157c4.617187 0 8.359374 3.746094 8.359374 8.359375v32.039062c0 4.617188-3.742187 8.359375-8.359374 8.359375zm0 0"/><path d="m455.054688 468.058594h-32.035157c-4.617187 0-8.359375-3.742188-8.359375-8.359375v-32.039063c0-4.613281 3.742188-8.355468 8.359375-8.355468h32.035157c4.617187 0 8.359374 3.742187 8.359374 8.355468v32.039063c0 4.617187-3.742187 8.359375-8.359374 8.359375zm0 0"/></g><path d="m463.414062 152.804688v32.042968c0 4.609375-3.742187 8.359375-8.359374 8.359375h-15.8125c4.609374 0 8.347656-3.75 8.347656-8.359375v-32.042968c0-4.609376-3.738282-8.359376-8.347656-8.359376h15.8125c4.617187 0 8.359374 3.75 8.359374 8.359376zm0 0" fill="#9ae7fd"/><path d="m463.414062 244.425781v32.03125c0 4.621094-3.742187 8.359375-8.359374 8.359375h-15.8125c4.609374 0 8.347656-3.738281 8.347656-8.359375v-32.03125c0-4.621093-3.738282-8.359375-8.347656-8.359375h15.8125c4.617187 0 8.359374 3.738282 8.359374 8.359375zm0 0" fill="#9ae7fd"/><path d="m463.414062 336.046875v32.03125c0 4.617187-3.742187 8.359375-8.359374 8.359375h-15.8125c4.609374 0 8.347656-3.742188 8.347656-8.359375v-32.03125c0-4.621094-3.738282-8.363281-8.347656-8.363281h15.8125c4.617187 0 8.359374 3.742187 8.359374 8.363281zm0 0" fill="#9ae7fd"/><path d="m463.414062 427.664062v32.035157c0 4.617187-3.742187 8.359375-8.359374 8.359375h-15.8125c4.609374 0 8.347656-3.742188 8.347656-8.359375v-32.035157c0-4.617187-3.738282-8.359374-8.347656-8.359374h15.8125c4.617187 0 8.359374 3.742187 8.359374 8.359374zm0 0" fill="#9ae7fd"/><path d="m88.980469 193.203125h-32.035157c-4.617187 0-8.359374-3.742187-8.359374-8.359375v-32.035156c0-4.617188 3.742187-8.359375 8.359374-8.359375h32.035157c4.617187 0 8.359375 3.742187 8.359375 8.359375v32.035156c0 4.617188-3.742188 8.359375-8.359375 8.359375zm0 0" fill="#c9f0ff"/><path d="m88.980469 284.820312h-32.035157c-4.617187 0-8.359374-3.742187-8.359374-8.355468v-32.039063c0-4.617187 3.742187-8.359375 8.359374-8.359375h32.035157c4.617187 0 8.359375 3.742188 8.359375 8.359375v32.039063c0 4.613281-3.742188 8.355468-8.359375 8.355468zm0 0" fill="#c9f0ff"/><path d="m88.980469 376.441406h-32.035157c-4.617187 0-8.359374-3.746094-8.359374-8.359375v-32.039062c0-4.617188 3.742187-8.359375 8.359374-8.359375h32.035157c4.617187 0 8.359375 3.746094 8.359375 8.359375v32.039062c0 4.617188-3.742188 8.359375-8.359375 8.359375zm0 0" fill="#c9f0ff"/><path d="m88.980469 468.058594h-32.035157c-4.617187 0-8.359374-3.742188-8.359374-8.359375v-32.039063c0-4.613281 3.742187-8.355468 8.359374-8.355468h32.035157c4.617187 0 8.359375 3.742187 8.359375 8.355468v32.039063c0 4.617187-3.742188 8.359375-8.359375 8.359375zm0 0" fill="#c9f0ff"/><path d="m97.335938 152.804688v32.042968c0 4.609375-3.738282 8.359375-8.359376 8.359375h-15.8125c4.609376 0 8.351563-3.75 8.351563-8.359375v-32.042968c0-4.609376-3.742187-8.359376-8.351563-8.359376h15.8125c4.621094 0 8.359376 3.75 8.359376 8.359376zm0 0" fill="#9ae7fd"/><path d="m97.335938 244.425781v32.03125c0 4.621094-3.738282 8.359375-8.359376 8.359375h-15.8125c4.609376 0 8.351563-3.738281 8.351563-8.359375v-32.03125c0-4.621093-3.742187-8.359375-8.351563-8.359375h15.8125c4.621094 0 8.359376 3.738282 8.359376 8.359375zm0 0" fill="#9ae7fd"/><path d="m97.335938 336.046875v32.03125c0 4.617187-3.738282 8.359375-8.359376 8.359375h-15.8125c4.609376 0 8.351563-3.742188 8.351563-8.359375v-32.03125c0-4.621094-3.742187-8.363281-8.351563-8.363281h15.8125c4.621094 0 8.359376 3.742187 8.359376 8.363281zm0 0" fill="#9ae7fd"/><path d="m97.335938 427.664062v32.035157c0 4.617187-3.738282 8.359375-8.359376 8.359375h-15.8125c4.609376 0 8.351563-3.742188 8.351563-8.359375v-32.035157c0-4.617187-3.742187-8.359374-8.351563-8.359374h15.8125c4.621094 0 8.359376 3.742187 8.359376 8.359374zm0 0" fill="#9ae7fd"/><path d="m291.289062 30.015625h-16.550781c-1.652343 0-2.992187-1.339844-2.992187-2.992187v-16.546876c0-1.65625-1.339844-2.996093-2.992188-2.996093h-25.507812c-1.652344 0-2.992188 1.339843-2.992188 2.996093v16.546876c0 1.652343-1.339844 2.992187-2.992187 2.992187h-16.550781c-1.652344 0-2.992188 1.339844-2.992188 2.992187v25.507813c0 1.652344 1.339844 2.992187 2.992188 2.992187h16.550781c1.652343 0 2.992187 1.339844 2.992187 2.996094v16.546875c0 1.652344 1.339844 2.992188 2.992188 2.992188h25.507812c1.652344 0 2.992188-1.339844 2.992188-2.992188v-16.546875c0-1.65625 1.339844-2.996094 2.992187-2.996094h16.550781c1.652344 0 2.992188-1.339843 2.992188-2.992187v-25.503906c0-1.65625-1.339844-2.996094-2.992188-2.996094zm0 0" fill="#ea4444"/><path d="m294.277344 33.011719v25.507812c0 1.644531-1.335938 2.992188-2.992188 2.992188h-9.65625v-14.140625c0-1.652344-1.339844-2.992188-2.992187-2.992188h-7.78125c-6.496094 0-11.765625-5.269531-11.765625-11.769531v-15.480469c0-1.652344-1.339844-2.992187-2.992188-2.992187h-15.839844v-3.660157c0-1.65625 1.339844-2.996093 2.992188-2.996093h25.496094c1.65625 0 2.996094 1.339843 2.996094 2.996093v16.546876c0 1.65625 1.347656 2.996093 2.992187 2.996093h16.550781c1.652344 0 2.992188 1.339844 2.992188 2.992188zm0 0" fill="#d93131"/><path d="m278.152344 446.703125c4.132812 0 7.480468-3.347656 7.480468-7.480469v-10.339844c0-4.132812-3.347656-7.480468-7.480468-7.480468-4.132813 0-7.484375 3.347656-7.484375 7.480468v10.339844c0 4.132813 3.351562 7.480469 7.484375 7.480469zm0 0"/><path d="m233.84375 421.402344c-4.132812 0-7.480469 3.347656-7.480469 7.480468v10.339844c0 4.132813 3.347657 7.480469 7.480469 7.480469s7.484375-3.347656 7.484375-7.480469v-10.339844c0-4.132812-3.351563-7.480468-7.484375-7.480468zm0 0"/><path d="m423.019531 200.6875h32.039063c8.734375 0 15.839844-7.109375 15.839844-15.84375v-32.035156c0-8.738282-7.105469-15.84375-15.839844-15.84375h-32.039063c-8.734375 0-15.839843 7.105468-15.839843 15.84375v32.035156c0 8.734375 7.105468 15.84375 15.839843 15.84375zm-.878906-47.878906c0-.484375.394531-.878906.878906-.878906h32.039063c.480468 0 .875.394531.875.878906v32.035156c0 .484375-.394532.878906-.875.878906h-32.039063c-.484375 0-.878906-.394531-.878906-.878906zm0 0"/><path d="m423.019531 292.304688h32.039063c8.734375 0 15.839844-7.105469 15.839844-15.84375v-32.035157c0-8.734375-7.105469-15.839843-15.839844-15.839843h-32.039063c-8.734375 0-15.839843 7.105468-15.839843 15.839843v32.035157c0 8.738281 7.105468 15.84375 15.839843 15.84375zm-.878906-47.878907c0-.484375.394531-.875.878906-.875h32.039063c.480468 0 .875.390625.875.875v32.035157c0 .484374-.394532.878906-.875.878906h-32.039063c-.484375 0-.878906-.394532-.878906-.878906zm0 0"/><path d="m423.019531 383.921875h32.039063c8.734375 0 15.839844-7.105469 15.839844-15.839844v-32.039062c0-8.734375-7.105469-15.839844-15.839844-15.839844h-32.039063c-8.734375 0-15.839843 7.105469-15.839843 15.839844v32.039062c0 8.734375 7.105468 15.839844 15.839843 15.839844zm-.878906-47.878906c0-.484375.394531-.875.878906-.875h32.039063c.480468 0 .875.394531.875.875v32.039062c0 .484375-.394532.875-.875.875h-32.039063c-.484375 0-.878906-.390625-.878906-.875zm0 0"/><path d="m423.019531 475.539062h32.039063c8.734375 0 15.839844-7.105468 15.839844-15.839843v-32.035157c0-8.734374-7.105469-15.84375-15.839844-15.84375h-32.039063c-8.734375 0-15.839843 7.109376-15.839843 15.84375v32.035157c0 8.734375 7.105468 15.839843 15.839843 15.839843zm-.878906-47.875c0-.484374.394531-.878906.878906-.878906h32.039063c.480468 0 .875.394532.875.878906v32.035157c0 .484375-.394532.875-.875.875h-32.039063c-.484375 0-.878906-.390625-.878906-.875zm0 0"/><path d="m56.945312 200.6875h32.035157c8.734375 0 15.839843-7.109375 15.839843-15.84375v-32.035156c0-8.738282-7.105468-15.84375-15.839843-15.84375h-32.035157c-8.734374 0-15.84375 7.105468-15.84375 15.84375v32.035156c0 8.734375 7.109376 15.84375 15.84375 15.84375zm-.878906-47.878906c0-.484375.394532-.878906.878906-.878906h32.035157c.484375 0 .878906.394531.878906.878906v32.035156c0 .484375-.394531.878906-.878906.878906h-32.035157c-.484374 0-.878906-.394531-.878906-.878906zm0 0"/><path d="m41.101562 276.464844c0 8.734375 7.109376 15.839844 15.84375 15.839844h32.035157c8.734375 0 15.839843-7.105469 15.839843-15.839844v-32.039063c0-8.734375-7.105468-15.839843-15.839843-15.839843h-32.035157c-8.734374 0-15.84375 7.105468-15.84375 15.839843zm14.964844-32.039063c0-.484375.394532-.875.878906-.875h32.035157c.484375 0 .878906.390625.878906.875v32.035157c0 .484374-.394531.878906-.878906.878906h-32.035157c-.484374 0-.878906-.394532-.878906-.878906zm0 0"/><path d="m41.101562 368.082031c0 8.734375 7.109376 15.839844 15.84375 15.839844h32.035157c8.734375 0 15.839843-7.105469 15.839843-15.839844v-32.039062c0-8.734375-7.105468-15.839844-15.839843-15.839844h-32.035157c-8.734374 0-15.84375 7.105469-15.84375 15.839844zm14.964844-32.039062c0-.484375.394532-.875.878906-.875h32.035157c.484375 0 .878906.394531.878906.875v32.039062c0 .484375-.394531.875-.878906.875h-32.035157c-.484374 0-.878906-.390625-.878906-.875zm0 0"/><path d="m41.101562 459.699219c0 8.734375 7.109376 15.839843 15.84375 15.839843h32.035157c8.734375 0 15.839843-7.105468 15.839843-15.839843v-32.035157c0-8.734374-7.105468-15.84375-15.839843-15.84375h-32.035157c-8.734374 0-15.84375 7.109376-15.84375 15.84375zm14.964844-32.035157c0-.484374.394532-.878906.878906-.878906h32.035157c.484375 0 .878906.394532.878906.878906v32.035157c0 .484375-.394531.875-.878906.875h-32.035157c-.484374 0-.878906-.390625-.878906-.875zm0 0"/><path d="m170.199219 151.910156 3.960937-5.648437c2.371094-3.382813 1.550782-8.050781-1.832031-10.421875-3.382813-2.375-8.050781-1.554688-10.421875 1.828125l-3.960938 5.648437c-2.371093 3.386719-1.550781 8.050782 1.832032 10.421875 1.304687.917969 2.804687 1.359375 4.289062 1.359375 2.355469 0 4.675782-1.113281 6.132813-3.1875zm0 0"/><path d="m195.121094 138.664062c-3.382813-2.375-8.050782-1.554687-10.421875 1.828126l-17.0625 24.335937c-2.371094 3.382813-1.550781 8.050781 1.832031 10.421875 1.304688.914062 2.804688 1.355469 4.289062 1.355469 2.355469 0 4.675782-1.109375 6.132813-3.1875l17.0625-24.332031c2.371094-3.382813 1.550781-8.050782-1.832031-10.421876zm0 0"/><path d="m238.429688 240.15625c1.304687.917969 2.804687 1.355469 4.285156 1.355469 2.359375 0 4.679687-1.109375 6.132812-3.1875l3.960938-5.648438c2.375-3.382812 1.554687-8.050781-1.828125-10.421875-3.382813-2.371094-8.050781-1.554687-10.421875 1.832032l-3.960938 5.648437c-2.371094 3.382813-1.554687 8.050781 1.832032 10.421875zm0 0"/><path d="m248.117188 261.664062c1.308593.917969 2.808593 1.355469 4.289062 1.355469 2.359375 0 4.679688-1.109375 6.132812-3.183593l17.066407-24.332032c2.371093-3.386718 1.550781-8.050781-1.832031-10.425781-3.382813-2.371094-8.050782-1.550781-10.421876 1.832031l-17.0625 24.332032c-2.371093 3.382812-1.554687 8.050781 1.828126 10.421874zm0 0"/><path d="m498.523438 101.40625h-117.28125v-17.472656c4.898437-1.679688 8.4375-6.324219 8.4375-11.789063v-21.394531c0-6.875-5.59375-12.46875-12.46875-12.46875h-75.449219v-5.273438c0-5.773437-4.699219-10.472656-10.472657-10.472656h-12.058593v-12.058594c0-5.777343-4.699219-10.476562-10.476563-10.476562h-25.507812c-5.773438 0-10.472656 4.699219-10.472656 10.476562v12.058594h-12.058594c-5.777344 0-10.476563 4.699219-10.476563 10.472656v5.273438h-75.246093c-6.875 0-12.46875 5.59375-12.46875 12.46875v21.394531c0 5.464844 3.535156 10.109375 8.4375 11.789063l-.015626 17.472656h-117.46875c-7.429687 0-13.476562 6.046875-13.476562 13.476562v32.730469c0 4.132813 3.347656 7.484375 7.480469 7.484375 4.132812 0 7.484375-3.351562 7.484375-7.484375v-31.242187h115.964844l-.070313 79.988281v87.472656c0 .398438.039063.785157.101563 1.167969v211.136719h-115.996094v-313.8125c0-4.132813-3.351563-7.480469-7.484375-7.480469-4.132813 0-7.480469 3.347656-7.480469 7.480469v321.292969c0 4.132812 3.347656 7.484374 7.480469 7.484374h497.039062c4.132813 0 7.480469-3.351562 7.480469-7.484374v-388.734376c0-7.429687-6.046875-13.476562-13.476562-13.476562zm-273.320313-63.90625h12.058594c5.773437 0 10.472656-4.699219 10.472656-10.476562v-12.058594h16.53125v12.058594c0 5.777343 4.699219 10.476562 10.472656 10.476562h12.0625v16.527344h-12.0625c-5.773437 0-10.472656 4.699218-10.472656 10.476562v12.058594h-16.53125v-12.058594c0-5.777344-4.699219-10.476562-10.472656-10.476562h-12.058594zm-87.71875 15.746094h72.753906v5.269531c0 5.777344 4.699219 10.476563 10.472657 10.476563h12.058593v.65625h-95.285156zm8.441406 135.632812v-72.507812h63.148438v72.507812zm63.148438 14.964844v72.503906h-63.148438v-72.503906zm39.441406 292.292969h-54.472656v-135.5625h54.472656zm69.4375 0h-54.472656v-135.5625h54.472656zm48.121094 0h-33.15625v-136.007813h.789062c6.445313 0 11.6875-5.242187 11.6875-11.6875v-19.5625c0-6.445312-5.242187-11.6875-11.6875-11.6875h-82.695312c-4.132813 0-7.480469 3.347656-7.480469 7.480469s3.347656 7.480469 7.480469 7.480469h79.421875v13.011718h-148.867188v-13.011718h34.992188c4.132812 0 7.480468-3.347656 7.480468-7.480469s-3.347656-7.480469-7.480468-7.480469h-38.269532c-6.445312 0-11.6875 5.242188-11.6875 11.6875v19.5625c0 6.445313 5.242188 11.6875 11.6875 11.6875h.789063v136.007813h-33.152344v-204.824219h70.632813c.054687 0 .109375-.003906.167968-.007812h78.550782c.054687 0 .109375.007812.164062.007812h70.636719v204.824219zm-78.449219-292.292969v72.503906h-63.253906v-72.503906zm-63.25-14.964844v-72.507812h63.253906v72.507812zm141.699219 87.46875h-63.148438v-72.503906h63.148438zm0-87.46875h-63.148438v-72.507812h63.148438zm.203125-87.472656h-70.835938c-.054687 0-.109375.007812-.164062.007812-.058594 0-.113282-.007812-.167969-.007812h-78.21875c-.054687 0-.109375.007812-.164063.007812-.058593 0-.113281-.007812-.167968-.007812h-70.632813v-16.792969h87.484375c1.460938 4.027344 5.3125 6.914063 9.835938 6.914063h25.507812c4.523438 0 8.375-2.886719 9.835938-6.914063h87.6875zm8.4375-31.753906h-95.484375v-.660156h12.058593c5.773438 0 10.472657-4.699219 10.472657-10.476563v-5.269531h72.953125zm122.320312 426.484375h-115.792968v-379.765625h115.792968zm0 0"/></svg>