<?xml version="1.0" encoding="UTF-8" standalone="no"?>
<svg
   xmlns:dc="http://purl.org/dc/elements/1.1/"
   xmlns:cc="http://creativecommons.org/ns#"
   xmlns:rdf="http://www.w3.org/1999/02/22-rdf-syntax-ns#"
   xmlns:svg="http://www.w3.org/2000/svg"
   xmlns="http://www.w3.org/2000/svg"
   xmlns:sodipodi="http://sodipodi.sourceforge.net/DTD/sodipodi-0.dtd"
   xmlns:inkscape="http://www.inkscape.org/namespaces/inkscape"
   height="360pt"
   viewBox="0 -68 496 360"
   width="496pt"
   version="1.1"
   id="svg46"
   sodipodi:docname="error-404.svg"
   inkscape:version="0.92.4 (unknown)">
  <metadata
     id="metadata52">
    <rdf:RDF>
      <cc:Work
         rdf:about="">
        <dc:format>image/svg+xml</dc:format>
        <dc:type
           rdf:resource="http://purl.org/dc/dcmitype/StillImage" />
      </cc:Work>
    </rdf:RDF>
  </metadata>
  <defs
     id="defs50" />
  <sodipodi:namedview
     pagecolor="#ffffff"
     bordercolor="#666666"
     borderopacity="1"
     objecttolerance="10"
     gridtolerance="10"
     guidetolerance="10"
     inkscape:pageopacity="0"
     inkscape:pageshadow="2"
     inkscape:window-width="1440"
     inkscape:window-height="842"
     id="namedview48"
     showgrid="false"
     inkscape:zoom="0.35685484"
     inkscape:cx="330.66667"
     inkscape:cy="239.99998"
     inkscape:window-x="0"
     inkscape:window-y="30"
     inkscape:window-maximized="1"
     inkscape:current-layer="svg46" />
  <path
     d="M 488,-52 V 20 H 8 v -72 c 0,-4.417969 3.582031,-8 8,-8 h 464 c 4.41797,0 8,3.582031 8,8 z m 0,0"
     id="path2"
     inkscape:connector-curvature="0"
     style="fill:#898890" />
  <path
     d="m 488,20 v 256 c 0,4.41797 -3.58203,8 -8,8 H 16 c -4.417969,0 -8,-3.58203 -8,-8 V 20 Z m 0,0"
     id="path4"
     inkscape:connector-curvature="0"
     style="fill:#e0e0e2" />
  <path
     d="m 64,-20 c 0,8.835938 -7.164062,16 -16,16 -8.835938,0 -16,-7.164062 -16,-16 0,-8.835938 7.164062,-16 16,-16 8.835938,0 16,7.164062 16,16 z m 0,0"
     id="path6"
     inkscape:connector-curvature="0"
     style="fill:#d80027" />
  <path
     d="m 120,-20 c 0,8.835938 -7.16406,16 -16,16 -8.835938,0 -16,-7.164062 -16,-16 0,-8.835938 7.164062,-16 16,-16 8.83594,0 16,7.164062 16,16 z m 0,0"
     id="path8"
     inkscape:connector-curvature="0"
     style="fill:#ffda44" />
  <path
     d="m 176,-20 c 0,8.835938 -7.16406,16 -16,16 -8.83594,0 -16,-7.164062 -16,-16 0,-8.835938 7.16406,-16 16,-16 8.83594,0 16,7.164062 16,16 z m 0,0"
     id="path10"
     inkscape:connector-curvature="0"
     style="fill:#91cc04" />
  <g
     id="g44"
     style="fill:#231f20"
     transform="translate(0,-68)">
    <path
       d="M 480,0 H 16 C 7.164062,0 0,7.164062 0,16 v 328 c 0,8.83594 7.164062,16 16,16 h 464 c 8.83594,0 16,-7.16406 16,-16 V 16 C 496,7.164062 488.83594,0 480,0 Z M 16,16 H 480 V 80 H 16 Z m 0,328 V 96 h 464 v 248 z m 0,0"
       id="path12"
       inkscape:connector-curvature="0" />
    <path
       d="M 48,24 C 34.746094,24 24,34.746094 24,48 24,61.253906 34.746094,72 48,72 61.253906,72 72,61.253906 72,48 72,34.746094 61.253906,24 48,24 Z m 0,32 c -4.417969,0 -8,-3.582031 -8,-8 0,-4.417969 3.582031,-8 8,-8 4.417969,0 8,3.582031 8,8 0,4.417969 -3.582031,8 -8,8 z m 0,0"
       id="path14"
       inkscape:connector-curvature="0" />
    <path
       d="m 104,24 c -13.253906,0 -24,10.746094 -24,24 0,13.253906 10.746094,24 24,24 13.25391,0 24,-10.746094 24,-24 0,-13.253906 -10.74609,-24 -24,-24 z m 0,32 c -4.417969,0 -8,-3.582031 -8,-8 0,-4.417969 3.582031,-8 8,-8 4.41797,0 8,3.582031 8,8 0,4.417969 -3.58203,8 -8,8 z m 0,0"
       id="path16"
       inkscape:connector-curvature="0" />
    <path
       d="m 160,24 c -13.25391,0 -24,10.746094 -24,24 0,13.253906 10.74609,24 24,24 13.25391,0 24,-10.746094 24,-24 0,-13.253906 -10.74609,-24 -24,-24 z m 0,32 c -4.41797,0 -8,-3.582031 -8,-8 0,-4.417969 3.58203,-8 8,-8 4.41797,0 8,3.582031 8,8 0,4.417969 -3.58203,8 -8,8 z m 0,0"
       id="path18"
       inkscape:connector-curvature="0" />
    <path
       d="m 464,32 h -8 c -4.41797,0 -8,3.582031 -8,8 0,4.417969 3.58203,8 8,8 h 8 c 4.41797,0 8,-3.582031 8,-8 0,-4.417969 -3.58203,-8 -8,-8 z m 0,0"
       id="path20"
       inkscape:connector-curvature="0" />
    <path
       d="m 424,32 h -56 c -4.41797,0 -8,3.582031 -8,8 0,4.417969 3.58203,8 8,8 h 56 c 4.41797,0 8,-3.582031 8,-8 0,-4.417969 -3.58203,-8 -8,-8 z m 0,0"
       id="path22"
       inkscape:connector-curvature="0" />
    <path
       d="M 80,224 H 56 v -8 h 16 c 4.417969,0 8,-3.58203 8,-8 0,-4.41797 -3.582031,-8 -8,-8 H 56 v -8 h 24 c 4.417969,0 8,-3.58203 8,-8 0,-4.41797 -3.582031,-8 -8,-8 H 48 c -4.417969,0 -8,3.58203 -8,8 v 48 c 0,4.41797 3.582031,8 8,8 h 32 c 4.417969,0 8,-3.58203 8,-8 0,-4.41797 -3.582031,-8 -8,-8 z m 0,0"
       id="path24"
       inkscape:connector-curvature="0" />
    <path
       d="m 296,176 h -32 c -4.41797,0 -8,3.58203 -8,8 v 48 c 0,4.41797 3.58203,8 8,8 4.41797,0 8,-3.58203 8,-8 v -12.6875 l 16,16 c 1.94141,2.5625 4.81641,4.24609 8,4.6875 3.23437,0 6.15234,-1.94922 7.39062,-4.9375 1.23829,-2.98828 0.55079,-6.42969 -1.73437,-8.71875 L 291.3125,216 H 296 c 4.41797,0 8,-3.58203 8,-8 v -24 c 0,-4.41797 -3.58203,-8 -8,-8 z m -8,24 h -16 v -8 h 16 z m 0,0"
       id="path26"
       inkscape:connector-curvature="0" />
    <path
       d="m 160,232 v -12.6875 l 16,16 c 1.94141,2.5625 4.81641,4.24609 8,4.6875 3.23437,0 6.15234,-1.94922 7.39062,-4.9375 1.23829,-2.98828 0.55079,-6.42969 -1.73437,-8.71875 L 179.3125,216 H 184 c 4.41797,0 8,-3.58203 8,-8 v -24 c 0,-4.41797 -3.58203,-8 -8,-8 h -32 c -4.41797,0 -8,3.58203 -8,8 v 48 c 0,4.41797 3.58203,8 8,8 4.41797,0 8,-3.58203 8,-8 z m 0,-40 h 16 v 8 h -16 z m 0,0"
       id="path28"
       inkscape:connector-curvature="0" />
    <path
       d="m 104,232 v -12.6875 l 16,16 c 1.94141,2.5625 4.81641,4.24609 8,4.6875 3.23437,0 6.15234,-1.94922 7.39062,-4.9375 1.23829,-2.98828 0.55079,-6.42969 -1.73437,-8.71875 L 123.3125,216 H 128 c 4.41797,0 8,-3.58203 8,-8 v -24 c 0,-4.41797 -3.58203,-8 -8,-8 H 96 c -4.417969,0 -8,3.58203 -8,8 v 48 c 0,4.41797 3.582031,8 8,8 4.41797,0 8,-3.58203 8,-8 z m 0,-40 h 16 v 8 h -16 z m 0,0"
       id="path30"
       inkscape:connector-curvature="0" />
    <path
       d="m 240,240 c 4.41797,0 8,-3.58203 8,-8 v -48 c 0,-4.41797 -3.58203,-8 -8,-8 h -32 c -4.41797,0 -8,3.58203 -8,8 v 48 c 0,4.41797 3.58203,8 8,8 z m -24,-48 h 16 v 32 h -16 z m 0,0"
       id="path32"
       inkscape:connector-curvature="0" />
    <path
       d="m 136,256 h -32 c -4.417969,0 -8,3.58203 -8,8 v 48 c 0,4.41797 3.582031,8 8,8 h 32 c 4.41797,0 8,-3.58203 8,-8 v -48 c 0,-4.41797 -3.58203,-8 -8,-8 z m -8,48 h -16 v -32 h 16 z m 0,0"
       id="path34"
       inkscape:connector-curvature="0" />
    <path
       d="m 80,256 c -4.417969,0 -8,3.58203 -8,8 v 16 H 56 v -16 c 0,-4.41797 -3.582031,-8 -8,-8 -4.417969,0 -8,3.58203 -8,8 v 24 c 0,4.41797 3.582031,8 8,8 h 24 v 16 c 0,4.41797 3.582031,8 8,8 4.417969,0 8,-3.58203 8,-8 v -48 c 0,-4.41797 -3.582031,-8 -8,-8 z m 0,0"
       id="path36"
       inkscape:connector-curvature="0" />
    <path
       d="m 192,256 c -4.41797,0 -8,3.58203 -8,8 v 16 h -16 v -16 c 0,-4.41797 -3.58203,-8 -8,-8 -4.41797,0 -8,3.58203 -8,8 v 24 c 0,4.41797 3.58203,8 8,8 h 24 v 16 c 0,4.41797 3.58203,8 8,8 4.41797,0 8,-3.58203 8,-8 v -48 c 0,-4.41797 -3.58203,-8 -8,-8 z m 0,0"
       id="path38"
       inkscape:connector-curvature="0" />
    <path
       d="m 256,304 h -40 c -4.41797,0 -8,3.58203 -8,8 0,4.41797 3.58203,8 8,8 h 40 c 4.41797,0 8,-3.58203 8,-8 0,-4.41797 -3.58203,-8 -8,-8 z m 0,0"
       id="path40"
       inkscape:connector-curvature="0" />
    <path
       d="m 288,304 h -8 c -4.41797,0 -8,3.58203 -8,8 0,4.41797 3.58203,8 8,8 h 8 c 4.41797,0 8,-3.58203 8,-8 0,-4.41797 -3.58203,-8 -8,-8 z m 0,0"
       id="path42"
       inkscape:connector-curvature="0" />
  </g>
</svg>
